<svg width="13" height="14" viewBox="0 0 13 14" fill="none" xmlns="http://www.w3.org/2000/svg">
<g id="image">
<path id="Vector" d="M10.2917 2.125H2.70833C2.11002 2.125 1.625 2.61002 1.625 3.20833V10.7917C1.625 11.39 2.11002 11.875 2.70833 11.875H10.2917C10.89 11.875 11.375 11.39 11.375 10.7917V3.20833C11.375 2.61002 10.89 2.125 10.2917 2.125Z" stroke="white" stroke-linecap="round" stroke-linejoin="round"/>
<path id="Vector_2" d="M4.60413 5.91666C5.05286 5.91666 5.41663 5.55289 5.41663 5.10416C5.41663 4.65543 5.05286 4.29166 4.60413 4.29166C4.15539 4.29166 3.79163 4.65543 3.79163 5.10416C3.79163 5.55289 4.15539 5.91666 4.60413 5.91666Z" stroke="white" stroke-width="2" stroke-linecap="round" stroke-linejoin="round"/>
<path id="Vector_3" d="M11.375 8.62499L8.66671 5.91666L2.70837 11.875" stroke="white" stroke-width="2" stroke-linecap="round" stroke-linejoin="round"/>
</g>
</svg>
