<svg width="14" height="14" viewBox="0 0 14 14" fill="none" xmlns="http://www.w3.org/2000/svg">
<g id="thumbs-down" clip-path="url(#clip0_1_2309)">
<path id="Vector" d="M9.91665 1.16667H11.4742C11.8043 1.16083 12.1251 1.27641 12.3756 1.49148C12.6262 1.70655 12.7891 2.00612 12.8333 2.33334V6.41667C12.7891 6.74388 12.6262 7.04346 12.3756 7.25852C12.1251 7.47359 11.8043 7.58917 11.4742 7.58334H9.91665M5.83332 8.75V11.0833C5.83332 11.5475 6.0177 11.9926 6.34588 12.3208C6.67407 12.649 7.11919 12.8333 7.58332 12.8333L9.91665 7.58334V1.16667H3.33665C3.0553 1.16349 2.78227 1.2621 2.56788 1.44433C2.35348 1.62656 2.21218 1.88014 2.16999 2.15834L1.36499 7.40834C1.33961 7.57554 1.35089 7.74627 1.39804 7.90869C1.44519 8.07111 1.52709 8.22133 1.63807 8.34895C1.74905 8.47657 1.88644 8.57854 2.04074 8.64779C2.19503 8.71704 2.36254 8.75192 2.53165 8.75H5.83332Z" stroke="#808080" stroke-linecap="round" stroke-linejoin="round"/>
</g>
<defs>
<clipPath id="clip0_1_2309">
<rect width="14" height="14" fill="white"/>
</clipPath>
</defs>
</svg>
