<svg width="25" height="30" viewBox="0 0 25 30" fill="none" xmlns="http://www.w3.org/2000/svg">
<g id="icon">
<path id="Vector" d="M21.1124 27.323V19.2926H23.7533V30H0V19.2926H2.64091V27.323H21.1124Z" fill="#BCBBBC"/>
<path id="Vector_2" d="M5.28479 24.646H18.4894V21.9694H5.28479V24.646ZM17.1194 4.95911e-05L15.0003 1.59741L22.881 12.336L25 10.7386L17.1194 4.95911e-05ZM10.5693 6.331L20.7158 14.8957L22.4059 12.8388L12.2593 4.2742L10.5693 6.331ZM7.25681 12.2829L19.2269 17.933L20.3419 15.5066L8.37174 9.85648L7.25681 12.2829ZM5.54701 18.554L18.4693 21.3066L19.0125 18.6872L6.09017 15.9345L5.54701 18.554Z" fill="#F48023"/>
</g>
</svg>
