<svg width="18" height="18" viewBox="0 0 18 18" fill="none" xmlns="http://www.w3.org/2000/svg">
<g id="message-circle">
<g id="Group">
<path id="Vector" d="M15.75 8.62499C15.7526 9.61489 15.5213 10.5914 15.075 11.475C14.5458 12.5338 13.7323 13.4244 12.7256 14.047C11.7189 14.6695 10.5587 14.9995 9.375 15C8.3851 15.0026 7.40859 14.7713 6.525 14.325L2.25 15.75L3.675 11.475C3.2287 10.5914 2.99742 9.61489 3 8.62499C3.00046 7.44131 3.33046 6.28113 3.95304 5.2744C4.57562 4.26768 5.46619 3.45417 6.525 2.92499C7.40859 2.47869 8.3851 2.24741 9.375 2.24999H9.75C11.3133 2.33623 12.7898 2.99606 13.8969 4.10314C15.0039 5.21021 15.6638 6.68673 15.75 8.24999V8.62499Z" stroke="#808080" stroke-width="2" stroke-linecap="round" stroke-linejoin="round"/>
</g>
</g>
</svg>
